<?xml version="1.0" encoding="utf-8"?>
<!DOCTYPE svg PUBLIC "-//W3C//DTD SVG 1.1//EN" "http://www.w3.org/Graphics/SVG/1.1/DTD/svg11.dtd">
<svg id="instagram" class="custom-icon" version="1.1" xmlns="http://www.w3.org/2000/svg" xmlns:xlink="http://www.w3.org/1999/xlink" viewBox="0 0 100 100">
    <circle class="outer-shape" cx="50" cy="50" r="48" style="opacity: 1; fill: rgb(3, 153, 255);"></circle>
    <path class="inner-shape" style="opacity:1;fill:#f7f7f7;" transform="translate(25,25) scale(0.5)" d="M50,1c13.72,0,15.35,0.06,20.73,0.3c5.33,0.24,8.22,1.14,10.14,1.9c2.55,0.99,4.4,2.18,6.34,4.12
        c1.94,1.94,3.13,3.79,4.12,6.34c0.76,1.92,1.66,4.81,1.9,10.14C98.94,29.65,99,31.28,99,45s-0.06,15.35-0.3,20.73
        c-0.24,5.33-1.14,8.22-1.9,10.14c-0.99,2.55-2.18,4.4-4.12,6.34c-1.94,1.94-3.79,3.13-6.34,4.12c-1.92,0.76-4.81,1.66-10.14,1.9
        C65.35,98.94,63.72,99,50,99s-15.35-0.06-20.73-0.3c-5.33-0.24-8.22-1.14-10.14-1.9c-2.55-0.99-4.4-2.18-6.34-4.12
        c-1.94-1.94-3.13-3.79-4.12-6.34c-0.76-1.92-1.66-4.81-1.9-10.14C1.06,60.35,1,58.72,1,45s0.06-15.35,0.3-20.73
        c0.24-5.33,1.14-8.22,1.9-10.14c0.99-2.55,2.18-4.4,4.12-6.34c1.94-1.94,3.79-3.13,6.34-4.12c1.92-0.76,4.81-1.66,10.14-1.9
        C34.65,1.06,36.28,1,50,1 M50,0C36.33,0,34.59,0.07,29.11,0.31c-5.61,0.25-9.41,1.19-12.67,2.55c-3.59,1.48-6.65,3.45-9.65,6.45
        s-4.97,6.06-6.45,9.65c-1.36,3.26-2.3,7.06-2.55,12.67C0.07,34.59,0,36.33,0,50s0.07,15.41,0.31,20.89
        c0.25,5.61,1.19,9.41,2.55,12.67c1.48,3.59,3.45,6.65,6.45,9.65s6.06,4.97,9.65,6.45c3.26,1.36,7.06,2.3,12.67,2.55
        C34.59,99.93,36.33,100,50,100s15.41-0.07,20.89-0.31c5.61-0.25,9.41-1.19,12.67-2.55c3.59-1.48,6.65-3.45,9.65-6.45
        s4.97-6.06,6.45-9.65c1.36-3.26,2.3-7.06,2.55-12.67C99.93,65.41,100,63.67,100,50s-0.07-15.41-0.31-20.89
        c-0.25-5.61-1.19-9.41-2.55-12.67c-1.48-3.59-3.45-6.65-6.45-9.65s-6.06-4.97-9.65-6.45c-3.26-1.36-7.06-2.3-12.67-2.55
        C65.41,0.07,63.67,0,50,0L50,0z M50,24.66c-14.02,0-25.34,11.33-25.34,25.34c0,14.02,11.33,25.34,25.34,25.34
        c14.02,0,25.34-11.33,25.34-25.34C75.34,35.99,64.02,24.66,50,24.66L50,24.66z M50,66.66c-9.2,0-16.66-7.46-16.66-16.66
        c0-9.2,7.46-16.66,16.66-16.66c9.2,0,16.66,7.46,16.66,16.66C66.66,59.2,59.2,66.66,50,66.66L50,66.66z M79.6,20.74
        c0,3.5-2.84,6.34-6.34,6.34c-3.5,0-6.34-2.84-6.34-6.34c0-3.5,2.84-6.34,6.34-6.34C76.76,14.4,79.6,17.24,79.6,20.74L79.6,20.74z"/>
</svg>
